AmstelvarAlpha-srfr0-cntr8.ufo
<glyph name="exclam" format="1">
  <advance width="604"/>
  <unicode hex="0021"/>
  <outline>
    <contour>
      <point x="172" y="107" type="qcurve" smooth="yes"/>
      <point x="172" y="159"/>
      <point x="245" y="236"/>
      <point x="302" y="236" type="qcurve" smooth="yes"/>
      <point x="359" y="236"/>
      <point x="432" y="159"/>
      <point x="432" y="107" type="qcurve" smooth="yes"/>
      <point x="432" y="55"/>
      <point x="359" y="-22"/>
      <point x="302" y="-22" type="qcurve" smooth="yes"/>
      <point x="245" y="-22"/>
      <point x="172" y="55"/>
    </contour>
    <contour>
      <point x="207" y="1520" type="line"/>
      <point x="397" y="1520" type="line"/>
      <point x="385" y="1208" type="line"/>
      <point x="308" y="838" type="line"/>
      <point x="306" y="397" type="line"/>
      <point x="296" y="397" type="line"/>
      <point x="294" y="838" type="line"/>
      <point x="219" y="1208" type="line"/>
    </contour>
  </outline>
</glyph>
<glyph name="ampersand" format="1">
  <advance width="1202"/>
  <unicode hex="0026"/>
  <outline>
    <contour>
      <point x="52" y="389" type="qcurve" smooth="yes"/>
      <point x="52" y="560"/>
      <point x="330" y="776"/>
      <point x="540" y="800" type="qcurve"/>
      <point x="330" y="813"/>
      <point x="138" y="982"/>
      <point x="138" y="1152" type="qcurve" smooth="yes"/>
      <point x="138" y="1315"/>
      <point x="362" y="1520"/>
      <point x="557" y="1520" type="qcurve" smooth="yes"/>
      <point x="691" y="1520"/>
      <point x="873" y="1428"/>
      <point x="949" y="1341" type="qcurve"/>
      <point x="932" y="1315" type="line"/>
      <point x="861" y="1426"/>
      <point x="687" y="1510"/>
      <point x="582" y="1510" type="qcurve"/>
      <point x="435" y="1510"/>
      <point x="300" y="1320"/>
      <point x="300" y="1152" type="qcurve" smooth="yes"/>
      <point x="300" y="988"/>
      <point x="465" y="804"/>
      <point x="700" y="804" type="qcurve" smooth="yes"/>
      <point x="709" y="804"/>
      <point x="710" y="803"/>
      <point x="710" y="800" type="qcurve" smooth="yes"/>
      <point x="710" y="797"/>
      <point x="709" y="796"/>
      <point x="700" y="796" type="qcurve" smooth="yes"/>
      <point x="440" y="796"/>
      <point x="232" y="560"/>
      <point x="232" y="380" type="qcurve" smooth="yes"/>
      <point x="232" y="200"/>
      <point x="420" y="-13"/>
      <point x="609" y="-13" type="qcurve"/>
      <point x="747" y="-13"/>
      <point x="1021" y="107"/>
      <point x="1101" y="261" type="qcurve"/>
      <point x="1108" y="257" type="line"/>
      <point x="1027" y="98"/>
      <point x="752" y="-23"/>
      <point x="594" y="-23" type="qcurve" smooth="yes"/>
      <point x="356" y="-23"/>
      <point x="52" y="202"/>
    </contour>
    <contour>
      <point x="932" y="1315" type="line"/>
      <point x="973" y="1487" type="line"/>
      <point x="991" y="1487" type="line"/>
      <point x="991" y="1101" type="line"/>
      <point x="981" y="1101" type="line"/>
    </contour>
    <contour>
      <point x="1081" y="215" type="line"/>
      <point x="1110" y="484" type="line"/>
      <point x="1120" y="484" type="line"/>
      <point x="1120" y="0" type="line"/>
      <point x="1108" y="0" type="line"/>
    </contour>
  </outline>
</glyph>
<glyph name="seven" format="1">
  <advance width="965"/>
  <unicode hex="0037"/>
  <outline>
    <contour>
      <point x="44" y="1098" type="line"/>
      <point x="44" y="1500" type="line"/>
      <point x="965" y="1500" type="line"/>
      <point x="965" y="1428" type="line"/>
      <point x="615" y="655" type="line"/>
      <point x="334" y="-23" type="line"/>
      <point x="307" y="-23" type="line"/>
      <point x="307" y="0" type="line"/>
      <point x="607" y="660" type="line"/>
      <point x="910" y="1328" type="line"/>
      <point x="903" y="1332" type="line"/>
      <point x="52" y="1332" type="line"/>
      <point x="52" y="1098" type="line"/>
    </contour>
  </outline>
</glyph>
<glyph name="colon" format="1">
  <advance width="664"/>
  <unicode hex="003A"/>
  <outline>
    <contour>
      <point x="202" y="107" type="qcurve" smooth="yes"/>
      <point x="202" y="159"/>
      <point x="275" y="236"/>
      <point x="332" y="236" type="qcurve" smooth="yes"/>
      <point x="389" y="236"/>
      <point x="462" y="159"/>
      <point x="462" y="107" type="qcurve" smooth="yes"/>
      <point x="462" y="55"/>
      <point x="389" y="-22"/>
      <point x="332" y="-22" type="qcurve" smooth="yes"/>
      <point x="275" y="-22"/>
      <point x="202" y="55"/>
    </contour>
    <contour>
      <point x="202" y="908" type="qcurve" smooth="yes"/>
      <point x="202" y="961"/>
      <point x="275" y="1038"/>
      <point x="332" y="1038" type="qcurve" smooth="yes"/>
      <point x="389" y="1038"/>
      <point x="462" y="961"/>
      <point x="462" y="908" type="qcurve" smooth="yes"/>
      <point x="462" y="857"/>
      <point x="389" y="780"/>
      <point x="332" y="780" type="qcurve" smooth="yes"/>
      <point x="275" y="780"/>
      <point x="202" y="857"/>
    </contour>
  </outline>
</glyph>
<glyph name="semicolon" format="1">
  <advance width="656"/>
  <unicode hex="003B"/>
  <outline>
    <contour>
      <point x="200" y="-250" type="line"/>
      <point x="266" y="-200"/>
      <point x="393" y="-75"/>
      <point x="428" y="15" type="qcurve"/>
      <point x="316" y="-19"/>
      <point x="202" y="53"/>
      <point x="202" y="116" type="qcurve" smooth="yes"/>
      <point x="202" y="172"/>
      <point x="275" y="245"/>
      <point x="332" y="245" type="qcurve" smooth="yes"/>
      <point x="386" y="245"/>
      <point x="462" y="172"/>
      <point x="462" y="107" type="qcurve" smooth="yes"/>
      <point x="462" y="0"/>
      <point x="302" y="-195"/>
      <point x="203" y="-254" type="qcurve"/>
    </contour>
    <contour>
      <point x="202" y="908" type="qcurve" smooth="yes"/>
      <point x="202" y="961"/>
      <point x="275" y="1038"/>
      <point x="332" y="1038" type="qcurve" smooth="yes"/>
      <point x="389" y="1038"/>
      <point x="462" y="961"/>
      <point x="462" y="908" type="qcurve" smooth="yes"/>
      <point x="462" y="857"/>
      <point x="389" y="780"/>
      <point x="332" y="780" type="qcurve" smooth="yes"/>
      <point x="275" y="780"/>
      <point x="202" y="857"/>
    </contour>
  </outline>
</glyph>
<glyph name="A" format="1">
  <advance width="1506"/>
  <unicode hex="0041"/>
  <outline>
    <contour>
      <point x="-59" y="0" type="line"/>
      <point x="-59" y="8" type="line"/>
      <point x="133" y="8" type="line"/>
      <point x="353" y="561" type="line"/>
      <point x="708" y="1508" type="line"/>
      <point x="811" y="1508" type="line"/>
      <point x="1179" y="567" type="line"/>
      <point x="1402" y="8" type="line"/>
      <point x="1567" y="8" type="line"/>
      <point x="1567" y="0" type="line"/>
      <point x="1013" y="0" type="line"/>
      <point x="1013" y="8" type="line"/>
      <point x="1205" y="8" type="line"/>
      <point x="1000" y="559" type="line"/>
      <point x="678" y="1386" type="line"/>
      <point x="366" y="558" type="line"/>
      <point x="152" y="8" type="line"/>
      <point x="457" y="8" type="line"/>
      <point x="457" y="0" type="line"/>
    </contour>
    <contour>
      <point x="357" y="545" type="line"/>
      <point x="363" y="557" type="line"/>
      <point x="754" y="560" type="line"/>
      <point x="1095" y="560" type="line"/>
      <point x="1106" y="551" type="line"/>
    </contour>
  </outline>
</glyph>
<glyph name="J" format="1">
  <advance width="660"/>
  <unicode hex="004A"/>
  <outline>
    <contour>
      <point x="16" y="0" type="qcurve"/>
      <point x="16" y="8" type="line"/>
      <point x="57" y="8" type="line" smooth="yes"/>
      <point x="193" y="8"/>
      <point x="295" y="123"/>
      <point x="294" y="265" type="qcurve" smooth="yes"/>
      <point x="292" y="754" type="line"/>
      <point x="290" y="1490" type="line"/>
      <point x="52" y="1490" type="line"/>
      <point x="52" y="1500" type="line"/>
      <point x="660" y="1500" type="line"/>
      <point x="660" y="1490" type="line"/>
      <point x="470" y="1490" type="line"/>
      <point x="468" y="754" type="line"/>
      <point x="471" y="373" type="line" smooth="yes"/>
      <point x="473" y="166"/>
      <point x="304" y="-15"/>
      <point x="165" y="-15" type="qcurve" smooth="yes"/>
      <point x="120" y="-15"/>
      <point x="53" y="-7"/>
    </contour>
  </outline>
</glyph>
<glyph name="K" format="1">
  <advance width="1440"/>
  <unicode hex="004B"/>
  <outline>
    <contour>
      <point x="82" y="0" type="line"/>
      <point x="82" y="8" type="line"/>
      <point x="290" y="8" type="line"/>
      <point x="292" y="754" type="line"/>
      <point x="290" y="1490" type="line"/>
      <point x="82" y="1490" type="line"/>
      <point x="82" y="1500" type="line"/>
      <point x="678" y="1500" type="line"/>
      <point x="678" y="1490" type="line"/>
      <point x="470" y="1490" type="line"/>
      <point x="468" y="754" type="line"/>
      <point x="470" y="8" type="line"/>
      <point x="678" y="8" type="line"/>
      <point x="678" y="0" type="line"/>
    </contour>
    <contour>
      <point x="385" y="561" type="line"/>
      <point x="380" y="571" type="line"/>
      <point x="1217" y="1490" type="line"/>
      <point x="974" y="1490" type="line"/>
      <point x="974" y="1500" type="line"/>
      <point x="1460" y="1500" type="line"/>
      <point x="1460" y="1490" type="line"/>
      <point x="1230" y="1490" type="line"/>
    </contour>
    <contour>
      <point x="617" y="822" type="line"/>
      <point x="728" y="947" type="line"/>
      <point x="1404" y="8" type="line"/>
      <point x="1566" y="8" type="line"/>
      <point x="1566" y="0" type="line"/>
      <point x="1033" y="0" type="line"/>
      <point x="1033" y="8" type="line"/>
      <point x="1196" y="8" type="line"/>
    </contour>
  </outline>
</glyph>
<glyph name="P" format="1">
  <advance width="1268"/>
  <unicode hex="0050"/>
  <outline>
    <contour>
      <point x="82" y="0" type="line"/>
      <point x="82" y="8" type="line"/>
      <point x="290" y="8" type="line"/>
      <point x="292" y="754" type="line"/>
      <point x="290" y="1490" type="line"/>
      <point x="82" y="1490" type="line"/>
      <point x="82" y="1500" type="line"/>
      <point x="718" y="1500" type="line" smooth="yes"/>
      <point x="954" y="1500"/>
      <point x="1218" y="1290"/>
      <point x="1218" y="1084" type="qcurve" smooth="yes"/>
      <point x="1218" y="884"/>
      <point x="953" y="625"/>
      <point x="675" y="625" type="qcurve" smooth="yes"/>
      <point x="604" y="625"/>
      <point x="432" y="641"/>
      <point x="388" y="653" type="qcurve"/>
      <point x="397" y="664" type="line"/>
      <point x="456" y="647"/>
      <point x="571" y="636"/>
      <point x="673" y="636" type="qcurve" smooth="yes"/>
      <point x="844" y="636"/>
      <point x="1023" y="878"/>
      <point x="1023" y="1092" type="qcurve" smooth="yes"/>
      <point x="1023" y="1288"/>
      <point x="822" y="1490"/>
      <point x="636" y="1490" type="qcurve" smooth="yes"/>
      <point x="495" y="1490" type="line"/>
      <point x="471" y="1478" type="line"/>
      <point x="468" y="764" type="line"/>
      <point x="470" y="8" type="line"/>
      <point x="698" y="8" type="line"/>
      <point x="698" y="0" type="line"/>
    </contour>
  </outline>
</glyph>
<glyph name="V" format="1">
  <advance width="1426"/>
  <unicode hex="0056"/>
  <outline>
    <contour>
      <point x="-69" y="1490" type="line"/>
      <point x="-69" y="1500" type="line"/>
      <point x="465" y="1500" type="line"/>
      <point x="465" y="1490" type="line"/>
      <point x="281" y="1490" type="line"/>
      <point x="543" y="801" type="line"/>
      <point x="793" y="110" type="line"/>
      <point x="1019" y="781" type="line"/>
      <point x="1276" y="1490" type="line"/>
      <point x="1010" y="1490" type="line"/>
      <point x="1010" y="1500" type="line"/>
      <point x="1516" y="1500" type="line"/>
      <point x="1516" y="1490" type="line"/>
      <point x="1287" y="1490" type="line"/>
      <point x="1029" y="777" type="line"/>
      <point x="764" y="-8" type="line"/>
      <point x="662" y="-8" type="line"/>
      <point x="375" y="740" type="line"/>
      <point x="83" y="1490" type="line"/>
    </contour>
  </outline>
</glyph>
<glyph name="backslash" format="1">
  <advance width="656"/>
  <unicode hex="005C"/>
  <outline>
    <contour>
      <point x="-30" y="1545" type="line"/>
      <point x="-9" y="1548" type="line"/>
      <point x="696" y="-152" type="line"/>
      <point x="675" y="-155" type="line"/>
    </contour>
  </outline>
</glyph>
<glyph name="bracketright" format="1">
  <advance width="616"/>
  <unicode hex="005D"/>
  <outline>
    <contour>
      <point x="451" y="508" type="line"/>
      <point x="444" y="-478" type="line"/>
      <point x="435" y="-490" type="line"/>
      <point x="425" y="-480" type="line"/>
      <point x="44" y="-480" type="line"/>
      <point x="44" y="-472" type="line"/>
      <point x="331" y="-472" type="line"/>
      <point x="331" y="508" type="line"/>
      <point x="331" y="1490" type="line"/>
      <point x="44" y="1490" type="line"/>
      <point x="44" y="1500" type="line"/>
      <point x="425" y="1500" type="line"/>
      <point x="435" y="1510" type="line"/>
      <point x="444" y="1498" type="line"/>
    </contour>
  </outline>
</glyph>
<glyph name="c" format="1">
  <advance width="1014"/>
  <unicode hex="0063"/>
  <outline>
    <contour>
      <point x="64" y="475" type="qcurve" smooth="yes"/>
      <point x="64" y="706"/>
      <point x="353" y="1016"/>
      <point x="561" y="1016" type="qcurve" smooth="yes"/>
      <point x="649" y="1016"/>
      <point x="810" y="974"/>
      <point x="852" y="948" type="qcurve"/>
      <point x="837" y="940" type="line"/>
      <point x="793" y="967"/>
      <point x="650" y="1006"/>
      <point x="580" y="1006" type="qcurve" smooth="yes"/>
      <point x="429" y="1006"/>
      <point x="244" y="751"/>
      <point x="244" y="509" type="qcurve" smooth="yes"/>
      <point x="244" y="254"/>
      <point x="467" y="22"/>
      <point x="622" y="22" type="qcurve" smooth="yes"/>
      <point x="733" y="22"/>
      <point x="908" y="131"/>
      <point x="957" y="220" type="qcurve"/>
      <point x="964" y="215" type="line"/>
      <point x="908" y="107"/>
      <point x="702" y="-22"/>
      <point x="545" y="-22" type="qcurve" smooth="yes"/>
      <point x="332" y="-22"/>
      <point x="64" y="244"/>
    </contour>
    <contour>
      <point x="826" y="947" type="line"/>
      <point x="873" y="1020" type="line"/>
      <point x="902" y="1020" type="line"/>
      <point x="902" y="689" type="line"/>
      <point x="881" y="689" type="line"/>
    </contour>
  </outline>
</glyph>
<glyph name="e" format="1">
  <advance width="1006"/>
  <unicode hex="0065"/>
  <outline>
    <contour>
      <point x="64" y="500" type="qcurve" smooth="yes"/>
      <point x="64" y="717"/>
      <point x="328" y="1022"/>
      <point x="541" y="1022" type="qcurve" smooth="yes"/>
      <point x="736" y="1022"/>
      <point x="958" y="793"/>
      <point x="978" y="588" type="qcurve"/>
      <point x="814" y="588" type="line"/>
      <point x="802" y="744"/>
      <point x="672" y="1014"/>
      <point x="530" y="1014" type="qcurve" smooth="yes"/>
      <point x="402" y="1014"/>
      <point x="243" y="755"/>
      <point x="244" y="531" type="qcurve" smooth="yes"/>
      <point x="245" y="282"/>
      <point x="452" y="20"/>
      <point x="626" y="20" type="qcurve" smooth="yes"/>
      <point x="721" y="20"/>
      <point x="866" y="87"/>
      <point x="920" y="153" type="qcurve"/>
      <point x="926" y="148" type="line"/>
      <point x="880" y="76"/>
      <point x="709" y="-22"/>
      <point x="582" y="-22" type="qcurve" smooth="yes"/>
      <point x="355" y="-22"/>
      <point x="64" y="267"/>
    </contour>
    <contour>
      <point x="216" y="582" type="line"/>
      <point x="216" y="592" type="line"/>
      <point x="924" y="592" type="line"/>
      <point x="977" y="598" type="line"/>
      <point x="979" y="582" type="line"/>
    </contour>
  </outline>
</glyph>
<glyph name="f" format="1">
  <advance width="628"/>
  <unicode hex="0066"/>
  <outline>
    <contour>
      <point x="54" y="0" type="line"/>
      <point x="54" y="8" type="line"/>
      <point x="222" y="8" type="line"/>
      <point x="228" y="527" type="line"/>
      <point x="228" y="940" type="line"/>
      <point x="65" y="966" type="line"/>
      <point x="65" y="972" type="line"/>
      <point x="230" y="972" type="line"/>
      <point x="227" y="1246" type="line" smooth="yes"/>
      <point x="226" y="1350"/>
      <point x="350" y="1500"/>
      <point x="425" y="1500" type="qcurve" smooth="yes"/>
      <point x="576" y="1500" type="line"/>
      <point x="576" y="1490" type="line"/>
      <point x="395" y="1490" type="line"/>
      <point x="393" y="527" type="line"/>
      <point x="397" y="8" type="line"/>
      <point x="580" y="8" type="line"/>
      <point x="580" y="0" type="line"/>
    </contour>
    <contour>
      <point x="377" y="964" type="line"/>
      <point x="381" y="974" type="line"/>
      <point x="588" y="974" type="line"/>
      <point x="588" y="964" type="line"/>
    </contour>
  </outline>
</glyph>
<glyph name="h" format="1">
  <advance width="1258"/>
  <unicode hex="0068"/>
  <outline>
    <contour>
      <point x="76" y="0" type="line"/>
      <point x="76" y="8" type="line"/>
      <point x="218" y="8" type="line"/>
      <point x="220" y="527" type="line"/>
      <point x="218" y="1490" type="line"/>
      <point x="52" y="1490" type="line"/>
      <point x="52" y="1500" type="line"/>
      <point x="371" y="1500" type="line"/>
      <point x="378" y="1499" type="line"/>
      <point x="388" y="1470" type="line"/>
      <point x="386" y="527" type="line"/>
      <point x="388" y="8" type="line"/>
      <point x="526" y="8" type="line"/>
      <point x="526" y="0" type="line"/>
    </contour>
    <contour>
      <point x="380" y="789" type="qcurve"/>
      <point x="372" y="792" type="line"/>
      <point x="411" y="881"/>
      <point x="598" y="1022"/>
      <point x="731" y="1022" type="qcurve" smooth="yes"/>
      <point x="889" y="1022"/>
      <point x="1044" y="873"/>
      <point x="1044" y="743" type="qcurve" smooth="yes"/>
      <point x="1044" y="669"/>
      <point x="1039" y="527"/>
      <point x="1039" y="527" type="qcurve"/>
      <point x="1044" y="8" type="line"/>
      <point x="1192" y="8" type="line"/>
      <point x="1192" y="0" type="line"/>
      <point x="716" y="0" type="line"/>
      <point x="716" y="8" type="line"/>
      <point x="874" y="8" type="line"/>
      <point x="876" y="527" type="line"/>
      <point x="876" y="734" type="line" smooth="yes"/>
      <point x="876" y="861"/>
      <point x="774" y="970"/>
      <point x="674" y="970" type="qcurve" smooth="yes"/>
      <point x="580" y="970"/>
      <point x="424" y="878"/>
    </contour>
  </outline>
</glyph>
<glyph name="j" format="1">
  <advance width="556"/>
  <unicode hex="006A"/>
  <outline>
    <contour>
      <point x="40" y="-500" type="line"/>
      <point x="40" y="-482" type="line"/>
      <point x="221" y="-482" type="line"/>
      <point x="219" y="527" type="line"/>
      <point x="213" y="992" type="line"/>
      <point x="45" y="992" type="line"/>
      <point x="45" y="1000" type="line"/>
      <point x="363" y="1005" type="line"/>
      <point x="383" y="1005" type="line"/>
      <point x="393" y="990" type="line"/>
      <point x="387" y="527" type="line"/>
      <point x="389" y="-76" type="line" smooth="yes"/>
      <point x="390" y="-318"/>
      <point x="211" y="-500"/>
      <point x="98" y="-500" type="qcurve" smooth="yes"/>
    </contour>
    <contour>
      <point x="188" y="1297" type="qcurve" smooth="yes"/>
      <point x="188" y="1339"/>
      <point x="245" y="1405"/>
      <point x="298" y="1405" type="qcurve" smooth="yes"/>
      <point x="348" y="1405"/>
      <point x="408" y="1345"/>
      <point x="408" y="1297" type="qcurve" smooth="yes"/>
      <point x="408" y="1255"/>
      <point x="351" y="1189"/>
      <point x="298" y="1189" type="qcurve" smooth="yes"/>
      <point x="248" y="1189"/>
      <point x="188" y="1259"/>
    </contour>
  </outline>
</glyph>
<glyph name="o" format="1">
  <advance width="1168"/>
  <unicode hex="006F"/>
  <outline>
    <contour>
      <point x="64" y="500" type="qcurve" smooth="yes"/>
      <point x="64" y="717"/>
      <point x="350" y="1022"/>
      <point x="582" y="1022" type="qcurve" smooth="yes"/>
      <point x="815" y="1022"/>
      <point x="1104" y="737"/>
      <point x="1104" y="506" type="qcurve" smooth="yes"/>
      <point x="1104" y="290"/>
      <point x="820" y="-22"/>
      <point x="588" y="-22" type="qcurve" smooth="yes"/>
      <point x="355" y="-22"/>
      <point x="64" y="267"/>
    </contour>
    <contour>
      <point x="244" y="522" type="qcurve" smooth="yes"/>
      <point x="245" y="264"/>
      <point x="429" y="-14"/>
      <point x="580" y="-14" type="qcurve" smooth="yes"/>
      <point x="742" y="-14"/>
      <point x="918" y="232"/>
      <point x="918" y="501" type="qcurve" smooth="yes"/>
      <point x="918" y="749"/>
      <point x="734" y="1014"/>
      <point x="582" y="1014" type="qcurve" smooth="yes"/>
      <point x="418" y="1014"/>
      <point x="243" y="776"/>
    </contour>
  </outline>
</glyph>
<glyph name="q" format="1">
  <advance width="1188"/>
  <unicode hex="0071"/>
  <outline>
    <contour>
      <point x="68" y="478" type="qcurve" smooth="yes"/>
      <point x="68" y="722"/>
      <point x="337" y="1022"/>
      <point x="565" y="1022" type="qcurve" smooth="yes"/>
      <point x="688" y="1022"/>
      <point x="845" y="933"/>
      <point x="876" y="879" type="qcurve"/>
      <point x="848" y="843" type="line"/>
      <point x="816" y="921"/>
      <point x="681" y="1013"/>
      <point x="573" y="1013" type="qcurve" smooth="yes"/>
      <point x="431" y="1013"/>
      <point x="252" y="710"/>
      <point x="252" y="488" type="qcurve" smooth="yes"/>
      <point x="252" y="257"/>
      <point x="416" y="0"/>
      <point x="548" y="0" type="qcurve" smooth="yes"/>
      <point x="652" y="0"/>
      <point x="806" y="108"/>
      <point x="848" y="197" type="qcurve"/>
      <point x="882" y="215" type="line"/>
      <point x="839" y="118"/>
      <point x="662" y="-9"/>
      <point x="536" y="-9" type="qcurve" smooth="yes"/>
      <point x="354" y="-9"/>
      <point x="68" y="254"/>
    </contour>
    <contour>
      <point x="661" y="-480" type="line"/>
      <point x="661" y="-472" type="line"/>
      <point x="824" y="-472" type="line"/>
      <point x="831" y="219" type="line"/>
      <point x="833" y="916" type="line"/>
      <point x="896" y="1000" type="line"/>
      <point x="1148" y="1000" type="line"/>
      <point x="1148" y="992" type="line"/>
      <point x="999" y="992" type="line"/>
      <point x="993" y="428" type="line"/>
      <point x="994" y="-472" type="line"/>
      <point x="1146" y="-472" type="line"/>
      <point x="1146" y="-480" type="line"/>
    </contour>
  </outline>
</glyph>
<glyph name="r" format="1">
  <advance width="864"/>
  <unicode hex="0072"/>
  <outline>
    <contour>
      <point x="76" y="0" type="line"/>
      <point x="76" y="8" type="line"/>
      <point x="224" y="8" type="line"/>
      <point x="226" y="527" type="line"/>
      <point x="224" y="992" type="line"/>
      <point x="76" y="992" type="line"/>
      <point x="76" y="1000" type="line"/>
      <point x="364" y="1000" type="line"/>
      <point x="379" y="993" type="line"/>
      <point x="392" y="810" type="line"/>
      <point x="392" y="527" type="line"/>
      <point x="394" y="8" type="line"/>
      <point x="552" y="8" type="line"/>
      <point x="552" y="0" type="line"/>
    </contour>
    <contour>
      <point x="386" y="789" type="qcurve"/>
      <point x="378" y="792" type="line"/>
      <point x="417" y="881"/>
      <point x="612" y="1021"/>
      <point x="750" y="1021" type="qcurve" smooth="yes"/>
      <point x="838" y="1019" type="line"/>
      <point x="838" y="780" type="line"/>
      <point x="828" y="780" type="line"/>
      <point x="748" y="977" type="line"/>
      <point x="596" y="977"/>
      <point x="430" y="876"/>
    </contour>
  </outline>
</glyph>
<glyph name="s" format="1">
  <advance width="872"/>
  <unicode hex="0073"/>
  <outline>
    <contour>
      <point x="52" y="0" type="line"/>
      <point x="52" y="309" type="line"/>
      <point x="61" y="309" type="line"/>
      <point x="135" y="118" type="line"/>
      <point x="59" y="0" type="line"/>
    </contour>
    <contour>
      <point x="89" y="759" type="qcurve" smooth="yes"/>
      <point x="89" y="869"/>
      <point x="247" y="1022"/>
      <point x="399" y="1022" type="qcurve" smooth="yes"/>
      <point x="492" y="1022"/>
      <point x="641" y="947"/>
      <point x="675" y="903" type="qcurve"/>
      <point x="669" y="894" type="line"/>
      <point x="625" y="944"/>
      <point x="495" y="1014"/>
      <point x="395" y="1014" type="qcurve" smooth="yes"/>
      <point x="287" y="1014"/>
      <point x="183" y="916"/>
      <point x="183" y="844" type="qcurve" smooth="yes"/>
      <point x="183" y="764"/>
      <point x="328" y="658"/>
      <point x="485" y="614" type="qcurve" smooth="yes"/>
      <point x="639" y="571"/>
      <point x="824" y="432"/>
      <point x="824" y="287" type="qcurve" smooth="yes"/>
      <point x="824" y="148"/>
      <point x="617" y="-22"/>
      <point x="452" y="-22" type="qcurve" smooth="yes"/>
      <point x="356" y="-22"/>
      <point x="175" y="56"/>
      <point x="128" y="114" type="qcurve"/>
      <point x="134" y="119" type="line"/>
      <point x="182" y="65"/>
      <point x="344" y="-12"/>
      <point x="466" y="-12" type="qcurve" smooth="yes"/>
      <point x="590" y="-12"/>
      <point x="720" y="125"/>
      <point x="720" y="216" type="qcurve" smooth="yes"/>
      <point x="720" y="316"/>
      <point x="542" y="426"/>
      <point x="378" y="474" type="qcurve" smooth="yes"/>
      <point x="214" y="522"/>
      <point x="89" y="650"/>
    </contour>
    <contour>
      <point x="669" y="894" type="line"/>
      <point x="729" y="1000" type="line"/>
      <point x="739" y="1000" type="line"/>
      <point x="739" y="714" type="line"/>
      <point x="730" y="714" type="line"/>
    </contour>
  </outline>
</glyph>
<glyph name="t" format="1">
  <advance width="612"/>
  <unicode hex="0074"/>
  <outline>
    <contour>
      <point x="16" y="966" type="line"/>
      <point x="16" y="972" type="line"/>
      <point x="152" y="972"/>
      <point x="251" y="1074"/>
      <point x="276" y="1280" type="qcurve"/>
      <point x="340" y="1280" type="line"/>
      <point x="350" y="968" type="line"/>
      <point x="347" y="527" type="line"/>
      <point x="350" y="44" type="line"/>
      <point x="359" y="37" type="line"/>
      <point x="560" y="37" type="line"/>
      <point x="560" y="19" type="line"/>
      <point x="314" y="-8" type="line"/>
      <point x="240" y="-8"/>
      <point x="170" y="74"/>
      <point x="172" y="163" type="qcurve" smooth="yes"/>
      <point x="179" y="527" type="line"/>
      <point x="179" y="940" type="line"/>
    </contour>
    <contour>
      <point x="309" y="964" type="line"/>
      <point x="313" y="974" type="line"/>
      <point x="570" y="974" type="line"/>
      <point x="570" y="964" type="line"/>
    </contour>
  </outline>
</glyph>
<glyph name="z" format="1">
  <advance width="885"/>
  <unicode hex="007A"/>
  <outline>
    <contour>
      <point x="32" y="0" type="line"/>
      <point x="32" y="50" type="line"/>
      <point x="676" y="990" type="line"/>
      <point x="170" y="990" type="line"/>
      <point x="91" y="740" type="line"/>
      <point x="80" y="740" type="line"/>
      <point x="80" y="1000" type="line"/>
      <point x="835" y="1000" type="line"/>
      <point x="835" y="942" type="line"/>
      <point x="197" y="8" type="line"/>
      <point x="741" y="8" type="line"/>
      <point x="841" y="260" type="line"/>
      <point x="851" y="260" type="line"/>
      <point x="851" y="0" type="line"/>
    </contour>
  </outline>
</glyph>
<glyph name="asciitilde" format="1">
  <advance width="1024"/>
  <unicode hex="007E"/>
  <outline>
    <contour>
      <point x="79" y="544" type="line"/>
      <point x="141" y="627"/>
      <point x="290" y="786"/>
      <point x="378" y="786" type="qcurve"/>
      <point x="721" y="661" type="line"/>
      <point x="781" y="661"/>
      <point x="865" y="734"/>
      <point x="916" y="813" type="qcurve"/>
      <point x="925" y="808" type="line"/>
      <point x="875" y="714"/>
      <point x="762" y="536"/>
      <point x="650" y="536" type="qcurve"/>
      <point x="330" y="653" type="line"/>
      <point x="269" y="653"/>
      <point x="151" y="607"/>
      <point x="86" y="537" type="qcurve"/>
    </contour>
  </outline>
</glyph>
